<svg xmlns="http://www.w3.org/2000/svg" xmlns:xlink="http://www.w3.org/1999/xlink" width="100" height="100" viewBox="0 0 100 100"><g><g transform="translate(50 50) scale(0.69 0.69) rotate(0) translate(-50 -50)" style="fill:#0283b3;"><svg fill="#0283b3" xmlns="http://www.w3.org/2000/svg" xmlns:xlink="http://www.w3.org/1999/xlink" viewBox="0 0 101 100" version="1.1" xml:space="preserve" style="" x="0px" y="0px" fill-rule="evenodd" clip-rule="evenodd" stroke-linejoin="round" stroke-miterlimit="1.41421"><rect x="0.801" y="0" width="100" height="100" style="" fill="none"></rect><path d="M95.446,25.569c-0.2,-0.1 -0.4,-0.1 -0.5,0l-0.5,0.4c-2,1.4 -4.4,3.1 -6.8,2.8c-0.8,-3.4 -2,-6.1 -2.1,-6.3c-0.1,-0.2 -0.3,-0.3 -0.5,-0.3l-0.1,0c-0.1,-1.6 -0.4,-2.9 -0.8,-3.7c2.2,-1.6 3.7,-3.7 3.7,-6.7c-0.1,-2.7 -1.4,-4.9 -3.4,-6c-1.8,-1 -4.1,-1 -5.9,0.1c-1.6,0.9 -2.5,2.7 -2.5,4.4c-2.4,0.5 -5.4,0.9 -9.7,0.8c-1.8,0 -5.3,0.1 -6.9,0.1c-0.5,-0.2 -1.1,-0.3 -1.7,-0.3c-0.7,0 -1.4,0.2 -2,0.5c-0.8,0 -1.6,0.1 -2.4,0.1c-2.8,0.1 -5.3,0.3 -7,0.6c-1.7,-0.7 -3.3,-1.1 -4.2,-1.3c-0.3,-0.1 -0.7,0 -1,0.3c-0.3,0.2 -0.4,0.5 -0.4,0.9c0,0.5 0,1.2 0,2c-0.3,0.2 -0.6,0.4 -1,0.7c-1.8,-1 -7,-4 -9.6,-3.7c-1.9,0.2 -3.9,3.7 -8.3,12.3c-1.7,3.3 -4,7.9 -4.8,8.4c-0.7,0.4 -2.9,0.8 -7.1,0.2c-1.3,-0.1 -2.5,0.8 -2.7,2.1c-0.3,2.1 -0.9,6.2 -1.2,8.2c-0.2,1.2 0.6,2.4 1.8,2.8c1.2,0.3 3.4,0.8 5.9,0.8c5.1,0 11.7,-1.8 14.8,-10.1c1.8,-4.7 3,-7.4 3.9,-8.5c0.4,-0.5 0.4,-0.5 1,-0.3c-0.2,2.6 0,5.5 0.7,9c3.6,16.4 6.6,41.3 6.8,57.8c0,0.7 0.5,1.2 1.2,1.2l24.4,0.1c0.3,0 0.6,-0.1 0.9,-0.4c0.2,-0.2 0.4,-0.5 0.3,-0.9c-0.1,-12.6 -1.6,-15.2 -3.6,-18.9c-0.6,-1.2 -1.3,-2.4 -2,-4.1c-1.8,-4.3 -1.4,-10.4 0.8,-14.6c1.1,-2 3.1,-4.6 6.7,-5.3c0.5,-0.1 0.9,-0.5 1,-1l0.3,-2.2c2.6,-0.1 9.7,-0.4 12.8,-0.6c2.8,-0.1 5.3,-2.9 5.6,-6c0.1,-1.3 -0.3,-2.8 -1.3,-4c0.1,-0.4 0.2,-0.9 0.2,-1.3c0.4,0.1 0.7,0.1 1,0.1c1.1,0 2,-0.3 2.9,-0.9c2,-1.5 3.2,-4.5 3.4,-8.9c0.1,-0.2 0,-0.3 -0.1,-0.4Zm-10.2,-1.4c1,2.6 2.8,8.1 2.1,12.1c-0.8,-0.6 -1.8,-1 -3.1,-1.3c-1,-0.2 -2,-0.4 -3,-0.5c0.9,-1.2 1.8,-3 2.4,-4.9c0.4,-0.9 0.7,-1.8 0.9,-2.7c0.3,-1 0.5,-2 0.7,-2.7Zm-8,-2.2c0.5,1 1.1,2.3 1.7,3.7c-2.3,-1.4 -4.5,-1.4 -7.1,-1.4c1.3,-0.7 2.8,-1.3 4.4,-1.9c0.3,-0.1 0.6,-0.3 1,-0.4Zm-7.1,3.3c0.4,0 0.8,0 1.2,0c3.3,0 5.7,-0.1 8.4,2.1c0.3,0.7 0.5,1.4 0.8,2c-0.1,-0.1 -0.2,-0.2 -0.2,-0.2c-3.1,-1.5 -9.4,-1.8 -12,-1.4c0,-1 0.7,-1.8 1.8,-2.5Zm10.4,4.9c0.1,0 0.1,0 0.2,0c0.3,0.9 0.4,1.7 0.4,2.2c-2.6,-0.7 -4.8,-0.5 -6.9,0.7c-2.5,-0.6 -4.4,-1.4 -5.3,-2.7c1.5,-1.1 6.5,-2.1 11.6,-0.2Zm0.3,3.2c-0.2,0.4 -0.5,0.7 -0.7,0.9c-1.6,-0.3 -3.1,-0.5 -4.5,-0.8c1.4,-0.6 3,-0.8 5.2,-0.1Zm2.7,-6.7c-0.2,0.8 -0.5,1.7 -0.8,2.6c-0.3,0.6 -0.5,1.2 -0.9,1.8c-0.6,-2.9 -2.9,-7.7 -3.8,-9.4c1.8,-0.8 3.7,-1.6 5.2,-2.6c0.8,1.4 1.1,4.3 0.3,7.6Zm-6.5,-14.2c0.3,0.5 0.7,0.9 1.1,1.2c-2.4,1.1 -4.4,1.9 -6.2,2.5c-1.9,0.7 -3.6,1.3 -5.1,2.2c0.7,-1.6 1,-3.5 0.8,-5c4.1,0.1 7,-0.4 9.4,-0.9Zm-19.3,0.8c0.5,0 1,0.2 1.4,0.6c0.4,0.4 0.6,0.9 0.6,1.4c0,0.5 -0.2,1 -0.6,1.4c-0.4,0.4 -0.9,0.6 -1.4,0.6c-0.5,0 -1,-0.2 -1.4,-0.6c-0.4,-0.4 -0.6,-0.9 -0.6,-1.4c0,-1.1 0.9,-2 2,-2Zm-4.3,0.6l0.1,0c-0.2,0.4 -0.2,0.9 -0.2,1.4c0,1.2 0.5,2.3 1.3,3.1c0.8,0.8 1.9,1.3 3.1,1.3c1.2,0 2.3,-0.5 3.1,-1.3c0.8,-0.8 1.3,-1.9 1.3,-3.1c0,-0.6 -0.1,-1.2 -0.4,-1.7c1.7,0 3.4,-0.1 4.4,-0.1c0.2,0 0.3,0 0.5,0c0.2,1.7 -0.3,4.6 -1.8,6.3c-0.8,0.7 -1.6,1.5 -2.3,2.5c-1.5,-0.8 -3,-1.4 -5.5,-2.3c-1.2,-0.4 -2,-0.7 -2.7,-1c0,-1.9 -1.8,-3.6 -4,-4.9c1,-0.1 2.1,-0.1 3.1,-0.2Zm-12.3,2.8c0.4,2.2 1.3,4.6 3.2,6.1c1.2,1 2.8,1.5 4.4,1.5c0.1,0 0.2,0 0.4,0c-0.9,0.9 -1.6,1.7 -3.8,2.1c-2.1,-0.3 -4,-0.3 -5.4,0.1c-1,-0.6 -2.2,-1.2 -3.6,-1.6c0.8,-4.1 2.9,-6.6 4.8,-8.2Zm28.7,28.5c-0.1,-2.4 -1.2,-4.5 -1.6,-5.3c1.1,-1 1.9,-2.3 2.2,-3.3c3,1.1 6.7,1.7 10.9,2.3l1.7,0.3c0.8,0.2 1.4,1.1 1.3,1.9c-0.1,0.7 -0.8,1.1 -2,1.1l-1.2,0c-4.6,-0.1 -9.7,-0.3 -11.3,3Zm-3.9,-5.1c-1.4,0.3 -2.7,-0.6 -4,-2.7c-1,-2 -2.4,-3.8 -4.1,-5.3c1.1,-1.9 3.7,-3.6 5.7,-3.5c0.4,4 2.6,6.2 6,7.6c-0.5,1.5 -1.9,3.6 -3.6,3.9Zm-9.2,19.7c-1,0.4 -1.9,0.3 -2.7,-0.2c-1,-0.6 -1.8,-2 -2.1,-3.6c0,-1.7 0.2,-3.2 0.4,-4.6c0.8,1 1.7,2 2.7,2.9c0.1,0.5 0.3,1.1 0.8,1.4c0.2,0.1 0.4,0.2 0.7,0.2c0.2,0 0.4,0 0.6,-0.1c2.3,-0.7 3.5,-4.6 3.2,-6.3l0.1,-0.1c1,-1 2,-1.9 2.8,-2.8c0.3,6.2 -4.7,12.6 -6.5,13.2Zm-3.1,17.1c-3.6,0 -7.2,0.1 -9.5,0.2c0.3,-0.4 0.6,-0.7 0.9,-1.2c0.8,-1.1 1.8,-2.5 2.5,-2.8c1,-0.4 4,1.5 6.1,3.8Zm-10.5,6.4c5,-0.4 20.4,-0.4 21.7,-0.4c0.1,0.8 0.3,1.8 0.4,2.8c-3,-0.1 -16.9,-0.3 -21.9,0.1c-0.1,-0.8 -0.2,-1.7 -0.2,-2.5Zm4,-11.1c-1,0.4 -2,1.8 -2.9,3.1c-0.5,0.6 -1,1.4 -1.4,1.8l-0.2,0c-0.4,-4.8 -0.9,-9.8 -1.5,-14.8c0.5,-0.5 0.9,-1.1 1.5,-1.9c0.8,-1.1 1.8,-2.5 2.5,-2.8c0.7,-0.3 2.3,1.1 3.6,2.2c0.8,0.7 1.7,1.5 2.4,1.9c0.4,4.8 1.3,9.8 2.4,13.6c-2.1,-1.8 -4.9,-3.6 -6.4,-3.1Zm3.9,-11.6c-0.6,-0.4 -1.1,-0.9 -1.7,-1.4c-1.7,-1.5 -3.3,-2.9 -4.5,-2.4c-1,0.4 -2,1.8 -2.9,3.1c-0.3,0.4 -0.6,0.8 -0.9,1.2c-0.7,-5.9 -1.6,-11.7 -2.6,-17.1c0.5,-0.5 1,-1 1.6,-1.7c1.3,-1.4 3.1,-3.3 3.8,-3.5c1.2,-0.4 3,2 4.5,4.2c0.6,2.6 1.6,5 3.2,7.3c-0.435,1.46 -0.75,8.644 -0.5,10.3Zm-14.4,-25.2c-0.8,-3.8 -0.9,-6.9 -0.5,-9.4c4.7,1.5 6,3.8 6.4,5.8c-2.6,1 -4.4,3.5 -5.4,5.6c-0.2,-0.7 -0.3,-1.4 -0.5,-2Zm-2.2,-12.9c-1.1,-0.4 -2.2,-0.4 -3.2,-0.1c-1.8,0.6 -3.2,2.4 -6.3,10.3c-1.3,3.4 -2.6,5.9 -4.8,7.1c-3.7,2 -7.4,1.8 -9.3,1.5c-0.2,0 -0.3,-0.2 -0.3,-0.4l0,-0.1c0.2,-1.2 0.6,-3.2 0.8,-4.4c0,-0.1 0.1,-0.2 0.2,-0.2c0.1,0 0.2,-0.1 0.3,0c1.7,0.4 5.9,1 8.6,-1.2c1.3,-1.1 3.3,-5 5.4,-9.2c0.8,-1.5 1.5,-3 2.3,-4.4c2,-3.7 3.3,-5.3 3.7,-5.4c0.5,-0.1 2.9,0.9 5.1,2c-1.1,1.2 -1.9,2.7 -2.5,4.5Zm26.6,15.2c-0.3,1.6 -1.3,3 -2.5,4.2c-0.6,-1.5 -2.7,-5.1 -8.7,-8.9c-2.2,-1.4 -4.3,-1.9 -6.3,-1.5c-0.4,-1.7 -1.2,-3 -2.5,-4.1c4.8,-0.8 15.8,1.9 20,10.3Zm-1.5,12.5l0,0Zm-0.2,1.1c-0.3,1.4 -1.1,2.9 -2.2,3.4c-9.8,-7.5 -8.5,-17.2 -7.6,-20.7c2,1.3 3.5,2.5 4.6,3.6c0,0.5 0,1.1 0,1.7c0,3.5 -0.1,8.7 5.2,12Zm-16.5,-18.6c1.8,-0.7 3.7,-0.4 5.8,0.8c-0.7,2.5 -0.9,5 -0.7,7.5c-1.5,-2 -3,-3.5 -4.5,-3c-0.9,0.3 -2.3,1.7 -4.2,3.8c-0.4,0.4 -0.8,0.8 -1.2,1.2c-0.2,-1.3 -0.5,-2.6 -0.7,-3.9c1,-2.3 2.7,-5.4 5.5,-6.4Zm12.3,6.6c0,-0.2 0,-0.5 0,-0.7c1.8,2 2.4,3.5 2.6,4c-0.4,0.4 -0.8,0.8 -1.3,1.2c-0.3,0.3 -0.6,0.6 -0.9,0.9c-0.5,-1.9 -0.4,-3.8 -0.4,-5.4Zm4.7,9.3c-0.4,0.4 -0.8,0.7 -1.1,1.1c-1.4,-1.2 -2.3,-2.5 -2.8,-3.9c0.4,-0.4 0.8,-0.8 1.3,-1.2c1.9,-1.7 3.8,-3.5 4.6,-5.7c1.2,1.7 2.5,2.3 3.5,2.3c-0.6,2.7 -2.8,4.8 -5.5,7.4Zm-2.7,-17.1c-1.6,-1.3 -3.3,-2.3 -5.1,-3.1c0.5,-0.8 1.4,-1.8 2.7,-2.5c2.5,1.1 4.9,1.8 6.8,2.1c-1.8,0.7 -3.5,2 -4.4,3.5Zm-6,-3.5c-1.3,-0.5 -2.5,-0.9 -3.7,-1.2c1.2,-0.5 1.8,-1.2 2.4,-1.8c0.4,-0.4 0.7,-0.8 1.2,-1.1c0.8,0.6 1.7,1.1 2.6,1.5c-1.2,0.8 -2,1.9 -2.5,2.6Zm-24.7,6.8c-3.8,10.2 -13.7,8.9 -17.8,7.8c-0.1,0 -0.1,-0.1 -0.1,-0.1c0.3,-2 0.9,-6.1 1.2,-8.2c0,0 0,-0.1 0.1,-0.1c4.3,0.6 7.3,0.4 8.7,-0.6c1.2,-0.8 2.8,-3.9 5.6,-9.3c2,-3.8 5.2,-10.3 6.5,-11c1.4,0 4.8,1.6 7.4,3c-0.2,0.2 -0.4,0.5 -0.6,0.7c-1.5,-0.7 -4.8,-2.3 -5.8,-2.1c-1.2,0.2 -3.2,3.8 -4.3,5.9c-0.7,1.4 -1.5,2.9 -2.3,4.4c-2,3.9 -4.1,8 -5.2,8.9c-2.3,1.9 -6.2,1.3 -7.7,1c-0.3,-0.1 -0.7,0 -1,0.2c-0.3,0.2 -0.5,0.5 -0.6,0.9c-0.2,1.2 -0.6,3.2 -0.8,4.4l0,0.1c-0.1,0.7 0.3,1.4 1.1,1.5c0.5,0.2 1.3,0.3 2.3,0.3c2.1,0 4.7,-0.4 7.4,-1.8c2.4,-1.3 3.9,-4 5.2,-7.6c2.9,-7.5 4.3,-9.3 5.7,-9.8c0.8,-0.3 1.7,-0.2 2.6,0.1c-0.1,0.3 -0.2,0.7 -0.2,1.1c-2.5,-0.7 -3.8,0.9 -7.4,10.3Zm17.1,57.6c0,-1.8 -0.1,-3.7 -0.2,-5.6c4.8,-0.4 19.2,-0.1 21.9,-0.1c0.1,1.6 0.2,3.5 0.3,5.8l-22,-0.1Zm18.7,-16.5c0.2,0.3 0.3,0.6 0.5,0.9c-1.8,0 -4.6,0 -7.6,0c-1.7,-4.6 -3,-11.7 -3.2,-18.1c0.4,0.7 1,1.3 1.6,1.7c0.6,0.4 1.3,0.6 2,0.6c0.5,0 1,-0.1 1.5,-0.3c0.7,-0.2 1.5,-0.9 2.4,-2c-1.1,4.2 -1,9.1 0.6,12.9c0.8,1.8 1.5,3.2 2.2,4.3Zm1.2,-24.3c0.6,-2 1,-4.1 0.7,-6.2c1,-1.3 1.7,-2.7 1.9,-4.3c0.4,-0.1 0.8,-0.3 1.2,-0.5c0.5,0.9 1.7,3.5 1.4,6.1l-0.3,2c-1.7,0.5 -3.4,1.5 -4.9,2.9Zm20.3,-6.9c-3.1,0.2 -10.3,0.5 -12.9,0.6c1.6,-2.3 6.1,-2.2 10.2,-2.1l1.3,0c2.4,0 2.8,-1.4 2.8,-1.9c0.2,-1.3 -0.7,-2.6 -2,-3l-1.7,-0.3c-10,-1.6 -16.7,-2.6 -17.1,-10.1c-0.4,-6.4 7.3,-9 12.3,-10.6c1.2,-0.4 2.2,-0.7 2.9,-1c2.8,-1.2 4.5,-2.9 4.7,-4.7c0,-0.4 0,-0.8 -0.1,-1.2l0,-0.1c-0.2,-0.5 -0.5,-1 -1,-1.3c-0.9,-0.6 -2,-0.6 -2.8,-0.1c-0.7,0.5 -1,1.2 -0.9,2c0.2,1 1.4,1.7 2.5,1.6c0.3,0 0.8,-0.1 1.2,-0.3c-0.4,0.9 -1.4,2.1 -3.9,3.2c-0.7,0.3 -1.7,0.6 -2.8,1c-5.2,1.7 -12.9,4.3 -13,11.1c-2.4,-0.3 -7.3,-1.4 -11.5,-4.1c0.4,-0.3 0.7,-0.6 0.9,-1l-2.1,-1.2c-0.2,0.3 -0.6,0.6 -1.3,0.7c-1.2,0.2 -2.7,-0.1 -3.7,-0.9c-1.6,-1.3 -2.5,-4 -2.7,-7.4c3.7,1.1 8.7,3.7 8.7,5.5l0,0.4c0.8,0.1 2,0.4 4.8,1.5c2.7,1 4.2,1.6 5.8,2.5c0.1,0 0.1,0.1 0.2,0.1c0.2,0 0.3,-0.1 0.4,-0.2c2.4,-3.5 5.1,-4.5 9.1,-6c2,-0.7 4.2,-1.6 6.9,-2.9c0.9,-0.3 1.9,-1.1 1.9,-1.1c0,0 -0.6,0.1 -1.2,-0.3c-1,-0.5 -1.3,-1.7 -1.4,-2.8c0,-0.9 0.6,-1.8 1.3,-2.3c1.1,-0.6 2.4,-0.6 3.5,0c1.3,0.7 2.1,2.1 2.2,4c0.1,4.2 -5.1,6.3 -10.1,8.3c-4.7,1.9 -9.2,3.7 -9.6,7.5c-0.7,6.7 7.4,8 14,9c1.4,0.2 2.8,0.4 4.1,0.7c2.3,0.5 3.5,1.7 3.3,3.5c0,1.8 -1.6,3.6 -3.2,3.7Zm-0.4,-34.1c0,0.2 0,0.3 -0.1,0.4c-0.2,0.3 -0.7,0.5 -1.2,0.5c-0.8,0 -1.4,-0.4 -1.5,-0.9c-0.1,-0.4 0.2,-0.8 0.5,-1c0.2,-0.1 0.5,-0.2 0.8,-0.2c0.3,0 0.6,0.1 0.9,0.3c0.2,0.2 0.4,0.5 0.6,0.9Zm8.4,23.6c-0.9,0.7 -2,0.9 -3.3,0.6c0,-0.9 0,-1.8 -0.2,-2.8c0.4,0.1 0.9,0.2 1.4,0.2c2.3,-0.2 2.5,-1.9 2.8,-2.1c-0.2,-0.2 -1.6,1.3 -3.2,1c-0.4,-0.1 -0.8,-0.2 -1.2,-0.2c-0.1,-0.4 -0.1,-0.7 -0.2,-1.1c2.4,0.2 4.8,-1.3 6.8,-2.7c-0.3,3.4 -1.4,5.9 -2.9,7.1Z" style="" fill-rule="nonzero"></path></svg></g></g></svg>